<svg width="256" height="256" viewBox="0 0 256 256" fill="none" xmlns="http://www.w3.org/2000/svg">
<path fill-rule="evenodd" clip-rule="evenodd" d="M168.891 62.2863C169.172 59.2325 169.818 55.0589 170.137 52.0081C170.487 51.7369 170.782 51.8105 171.021 52.2292C172.973 55.5815 174.926 58.9339 176.879 62.2863C176.879 62.2863 172.842 62.0241 168.891 62.2863Z" fill="white"/>
<path d="M205.617 9.34411C208.516 8.97412 210.395 10.1532 211.254 12.8812C211.291 21.5033 211.401 17.0822 211.585 25.7025C217.74 28.2449 221.057 32.8505 221.533 39.5189C221.284 46.5399 217.931 51.3658 211.475 53.9974C211.401 91.9457 211.328 38.8187 211.254 76.767C209.303 89.1816 196.553 95.5277 196.553 95.5277C196.553 95.5277 198.958 82.5162 199.979 82.514C201.199 80.5507 201.936 78.414 202.19 76.1039C202.301 38.3769 202.338 91.7246 202.301 53.9974C195.499 51.7207 191.888 46.9683 191.469 39.7396C191.807 33.9027 194.459 29.4812 199.427 26.4759C200.338 25.9881 201.297 25.6571 202.301 25.4818C202.264 16.7865 202.301 21.1334 202.411 12.4388C203.019 10.9099 204.088 9.87831 205.617 9.34411ZM212.176 38.2728C210.988 34.5644 208.446 32.9432 204.55 33.4095C200.798 34.8694 199.361 37.5963 200.239 41.5892C201.74 44.7156 204.208 46.0049 207.645 45.4574C210.975 44.2113 212.486 41.8163 212.176 38.2728Z" fill="white"/>
<path d="M164.939 64.7343C174.747 64.3 184.484 64.9296 194.147 66.6239C196.852 66.9813 198.342 68.5283 198.615 71.2636C195.906 80.9912 193.271 90.7272 190.711 100.472C192.24 100.249 193.73 99.8471 195.179 99.2685C199.681 97.2532 204.263 95.4776 208.924 93.9423C211.401 94.242 212.546 95.6735 212.359 98.2372C209.529 120.381 201.167 140.083 187.275 157.341C171.283 155.902 157.71 149.431 146.556 137.927C152.774 148.187 161.422 155.804 172.499 160.777C175.617 161.949 178.71 163.152 181.777 164.386C178.089 168.533 174.079 172.312 169.75 175.725C168.866 190.726 162.452 202.696 150.508 211.634C147.305 214.038 143.982 216.271 140.542 218.334C140.428 218.048 140.313 217.762 140.198 217.476C142.218 209.215 141.99 201.025 139.512 192.906C139.283 192.792 139.053 192.677 138.824 192.562C131.224 195.178 123.55 197.526 115.802 199.606C111.711 206.675 106.213 212.403 99.3076 216.788C97.5164 217.741 95.6836 218.6 93.8096 219.365L93.4658 219.021C95.7426 212.937 96.7737 206.637 96.5586 200.122C87.3821 200.275 78.2184 200.045 69.0684 199.434C68.1454 214.972 63.7356 229.404 55.8389 242.731C54.9197 243.936 53.9457 245.082 52.918 246.168C50.2353 235.762 46.3981 225.797 41.4062 216.272C34.1328 204.417 24.5688 194.853 12.7139 187.58C8.41899 185.146 4.18114 182.627 0 180.02C6.46619 177.238 13.2241 175.634 20.2734 175.21C30.3986 174.602 40.4214 175.346 50.3408 177.443C50.5126 177.329 50.6846 177.214 50.8564 177.1C54.4886 157.956 60.7886 139.743 69.7559 122.463C64.4895 114.733 57.8457 108.491 49.8252 103.735C59.7619 101.645 69.441 102.504 78.8613 106.312C78.9186 106.198 78.9759 106.084 79.0332 105.97C74.7809 98.109 68.8247 91.8666 61.165 87.2421C57.6574 85.3165 54.1066 83.4838 50.5127 81.7441C65.8936 74.6812 81.8148 73.1917 98.2764 77.2763C103.265 78.5955 108.133 80.2561 112.881 82.2587C128.804 72.1213 146.157 66.2799 164.939 64.7343ZM173.015 94.9736C169.956 86.8355 164.058 83.2849 155.318 84.3212C146.287 87.6024 142.679 94.0164 144.494 103.563C147.674 112.17 153.802 115.665 162.878 114.045C171.612 110.57 174.991 104.213 173.015 94.9736Z" fill="white"/>
<path fill-rule="evenodd" clip-rule="evenodd" d="M157.723 93.2551C164.182 93.8022 166.301 97.124 164.08 103.22C161.85 105.659 159.159 106.288 156.005 105.11C152.799 102.726 152.054 99.6912 153.771 96.0041C154.854 94.6946 156.171 93.7785 157.723 93.2551Z" fill="white"/>
</svg>
